<svg width="300" height="300" viewBox="0 0 300 300" fill="none" xmlns="http://www.w3.org/2000/svg">
<rect width="300" height="300" rx="55" fill="#ECECEC"/>
<path d="M88 49.9403L93.6794 63.9798L116.397 49.2264L97.7023 73.974L92.7328 94.2004L106.221 94.6763L109.534 102.767L132.015 87.7755L113.557 112.523L108.115 131.798L121.603 132.274L124.679 139.888L146.924 125.135L128.939 150.596L123.496 169.633L136.748 170.109L140.061 177.961L163.252 162.732V162.97L144.794 187.956L141.954 204.613H157.336L162.542 211.751L175.084 203.423L168.221 220.318L165.145 235.309L179.58 235.071L183.84 240.782L193.542 234.357L188.099 246.493L209.634 276L206.557 255.298L212 241.496L204.664 241.258L201.115 214.845L208.45 192.953L198.038 192.715L194.489 167.729L199.458 149.169L187.626 148.693L180.29 130.37L185.496 110.857L172.008 110.381L165.145 93.2486L170.115 73.2601L156.863 72.7842L149.763 55.4133L154.733 35.4249L141.481 34.9489L138.878 29L88 49.9403Z" fill="url(#paint0_linear_527_213)"/>
<path d="M73.5067 154C79.9293 154 85.0674 155.67 88.7925 159.138C92.5176 162.606 94.4444 167.102 94.4444 172.882C94.4444 178.149 92.3892 182.516 88.4071 186.113C84.682 189.324 80.0578 190.994 74.6628 190.994H50V154H73.5067ZM75.1766 185.471C78.9017 185.471 81.8561 184.315 84.2967 181.874C86.6088 179.562 87.8933 176.479 87.8933 172.754C87.8933 168.772 86.6088 165.561 84.0398 163.12C81.4707 160.68 78.131 159.523 74.0205 159.523H56.1657V185.471H75.1766Z" fill="#00467F"/>
<path d="M145.311 190.994H138.118L128.099 176.864H109.473V190.994H103.308V154H132.466C136.32 154 139.403 155.028 141.586 157.083C143.77 159.138 144.926 161.964 144.926 165.561C144.926 168.644 144.027 171.213 142.229 173.139C140.559 174.938 138.247 176.094 135.292 176.479L145.311 190.994ZM131.695 171.341C136.448 171.341 138.76 169.414 138.76 165.561C138.76 161.45 136.191 159.395 131.053 159.395H109.473V171.213H131.695V171.341Z" fill="#00467F"/>
<path d="M160.982 190.994H154.816V154H160.982V190.994Z" fill="#00467F"/>
<path d="M208.123 190.994H173.441V154H179.607V185.471H208.123V190.994Z" fill="#00467F"/>
<path d="M249.999 190.994H215.317V154H221.483V185.471H249.999V190.994Z" fill="#00467F"/>
<path d="M82.5034 144.694H77.8008L74.8962 138.885H57.6072L54.7026 144.694H50L63.5546 118.968H68.8105L82.5034 144.694ZM72.8215 135.012L66.3209 122.564L59.6819 135.012H72.8215Z" fill="#575757"/>
<path d="M107.676 118.968C110.304 118.968 112.379 119.659 113.9 121.181C115.422 122.702 116.252 124.639 116.252 126.99C116.252 129.48 115.422 131.554 113.9 132.799C112.241 134.182 110.028 134.874 106.985 134.874H91.4937V144.694H87.2061V118.968H107.676ZM106.846 131.001C110.166 131.001 111.826 129.618 111.826 126.99C111.826 124.085 110.028 122.702 106.57 122.702H91.4937V130.863H106.846V131.001Z" fill="#575757"/>
<path d="M147.786 144.694H143.084L140.179 138.885H122.752L119.847 144.694H115.145L128.699 118.968H134.093L147.786 144.694ZM138.104 135.012L131.604 122.564L124.965 135.012H138.104Z" fill="#575757"/>
<path d="M180.429 124.777L176.556 126.16C173.928 123.394 170.332 122.011 165.629 122.011C162.033 122.011 159.128 122.979 156.915 124.777C154.702 126.575 153.596 128.927 153.596 131.693C153.596 134.597 154.702 136.949 156.915 138.747C159.128 140.545 162.171 141.375 165.906 141.375C170.47 141.375 174.066 139.992 176.556 137.087L180.152 139.162C178.354 141.375 176.279 142.896 173.928 143.864C171.577 144.833 168.81 145.248 165.629 145.248C161.065 145.248 157.33 144.141 154.287 141.79C150.83 139.162 149.17 135.842 149.17 131.555C149.17 127.405 150.968 124.086 154.426 121.458C157.469 119.106 161.203 118 165.629 118C171.991 118.138 176.971 120.351 180.429 124.777Z" fill="#575757"/>
<path d="M215.976 144.694H211.688V133.214H191.08V144.694H186.792V118.968H191.08V129.341H211.688V118.968H215.976V144.694Z" fill="#575757"/>
<path d="M250.001 144.694H223.168V118.968H249.032V122.841H227.456V129.48H242.532V133.352H227.456V140.821H250.001V144.694Z" fill="#575757"/>
<defs>
<linearGradient id="paint0_linear_527_213" x1="133.039" y1="168.832" x2="189.128" y2="146.836" gradientUnits="userSpaceOnUse">
<stop stop-color="#C2C2C4"/>
<stop offset="1" stop-color="#717073"/>
</linearGradient>
</defs>
</svg>
